<svg width="20" height="19" viewBox="0 0 20 19" fill="none" xmlns="http://www.w3.org/2000/svg">
<path d="M3.92857 1H16.0714C17.4169 1 18.5 2.08314 18.5 3.42857V15.5714C18.5 16.9169 17.4169 18 16.0714 18H3.92857C2.58314 18 1.5 16.9169 1.5 15.5714V3.42857C1.5 2.08314 2.58314 1 3.92857 1Z" stroke="#222427" stroke-width="1.21429" stroke-linecap="round" stroke-linejoin="round"/>
<path d="M5.14258 4.64453H6.35686" stroke="#222427" stroke-width="1.21429" stroke-linecap="round" stroke-linejoin="round"/>
<path d="M7.57087 5.85826C7.24882 5.85826 6.93996 5.73033 6.71224 5.5026C6.48452 5.27488 6.35658 4.96602 6.35658 4.64397C6.35658 4.32192 6.48452 4.01307 6.71224 3.78534C6.93996 3.55762 7.24882 3.42969 7.57087 3.42969C7.73033 3.42969 7.88823 3.4611 8.03556 3.52212C8.18288 3.58314 8.31674 3.67259 8.4295 3.78534C8.54226 3.8981 8.6317 4.03196 8.69272 4.17929C8.75375 4.32661 8.78516 4.48451 8.78516 4.64397C8.78516 4.80344 8.75375 4.96134 8.69272 5.10866C8.6317 5.25598 8.54226 5.38985 8.4295 5.5026C8.31674 5.61536 8.18288 5.7048 8.03556 5.76583C7.88823 5.82685 7.73033 5.85826 7.57087 5.85826Z" stroke="#222427" stroke-width="1.21429" stroke-linecap="round" stroke-linejoin="round"/>
<path d="M8.78516 4.64456L14.8566 4.64453" stroke="#222427" stroke-width="1.21429" stroke-linecap="round" stroke-linejoin="round"/>
<path d="M14.857 9.5H13.6427" stroke="#222427" stroke-width="1.21429" stroke-linecap="round" stroke-linejoin="round"/>
<path d="M12.4282 10.7137C12.7502 10.7137 13.0591 10.5858 13.2868 10.3581C13.5145 10.1303 13.6424 9.82149 13.6424 9.49944C13.6424 9.17739 13.5145 8.86854 13.2868 8.64081C13.0591 8.41309 12.7502 8.28516 12.4282 8.28516C12.1061 8.28516 11.7972 8.41309 11.5695 8.64081C11.3418 8.86854 11.2139 9.17739 11.2139 9.49944C11.2139 9.82149 11.3418 10.1303 11.5695 10.3581C11.7972 10.5858 12.1061 10.7137 12.4282 10.7137Z" stroke="#222427" stroke-width="1.21429" stroke-linecap="round" stroke-linejoin="round"/>
<path d="M11.2141 9.50003L5.14267 9.5" stroke="#222427" stroke-width="1.21429" stroke-linecap="round" stroke-linejoin="round"/>
<path d="M5.14258 14.3555H6.35686" stroke="#222427" stroke-width="1.21429" stroke-linecap="round" stroke-linejoin="round"/>
<path d="M7.57087 15.5731C7.24882 15.5731 6.93996 15.4452 6.71224 15.2174C6.48452 14.9897 6.35658 14.6809 6.35658 14.3588C6.35658 14.0368 6.48452 13.7279 6.71224 13.5002C6.93996 13.2725 7.24882 13.1445 7.57087 13.1445C7.73033 13.1445 7.88823 13.1759 8.03556 13.237C8.18288 13.298 8.31674 13.3874 8.4295 13.5002C8.54226 13.6129 8.6317 13.7468 8.69272 13.8941C8.75375 14.0415 8.78516 14.1994 8.78516 14.3588C8.78516 14.5183 8.75375 14.6762 8.69272 14.8235C8.6317 14.9708 8.54226 15.1047 8.4295 15.2174C8.31674 15.3302 8.18288 15.4196 8.03556 15.4807C7.88823 15.5417 7.73033 15.5731 7.57087 15.5731Z" stroke="#222427" stroke-width="1.21429" stroke-linecap="round" stroke-linejoin="round"/>
<path d="M8.78516 14.3555L14.8566 14.3555" stroke="#222427" stroke-width="1.21429" stroke-linecap="round" stroke-linejoin="round"/>
</svg>
