<svg width="180" height="42" viewBox="0 0 180 42" fill="none" xmlns="http://www.w3.org/2000/svg">
<mask id="path-1-inside-1_107_224" fill="white">
<path d="M0 21.4286C0 9.5939 9.5939 0 21.4286 0H158.571C170.406 0 180 9.5939 180 21.4286C180 32.7899 170.79 42 159.429 42H20.5714C9.21014 42 0 32.7899 0 21.4286Z"/>
</mask>
<path d="M0 21.4286C0 9.5939 9.5939 0 21.4286 0H158.571C170.406 0 180 9.5939 180 21.4286C180 32.7899 170.79 42 159.429 42H20.5714C9.21014 42 0 32.7899 0 21.4286Z" fill="#38F2AE"/>
<path d="M21.4286 1H158.571V-1H21.4286V1ZM159.429 41H20.5714V43H159.429V41ZM20.5714 41C9.76243 41 1 32.2376 1 21.4286H-1C-1 33.3421 8.65786 43 20.5714 43V41ZM179 21.4286C179 32.2376 170.238 41 159.429 41V43C171.342 43 181 33.3421 181 21.4286H179ZM158.571 1C169.854 1 179 10.1462 179 21.4286H181C181 9.04161 170.958 -1 158.571 -1V1ZM21.4286 -1C9.04161 -1 -1 9.04161 -1 21.4286H1C1 10.1462 10.1462 1 21.4286 1V-1Z" fill="#38F2AE" mask="url(#path-1-inside-1_107_224)"/>
<path d="M20.822 17.418V15.766H28.606V17.418H25.61V26H23.818V17.418H20.822ZM33.2298 19.056V20.638H32.5998C31.3678 20.638 30.5978 21.296 30.5978 22.64V26H28.8898V19.098H30.4998L30.5978 20.106C30.8918 19.42 31.5498 18.958 32.4738 18.958C32.7118 18.958 32.9498 18.986 33.2298 19.056ZM36.1705 26.182C34.7005 26.182 33.8045 25.328 33.8045 24.026C33.8045 22.752 34.7285 21.954 36.3665 21.828L38.4385 21.674V21.52C38.4385 20.582 37.8785 20.204 37.0105 20.204C36.0025 20.204 35.4425 20.624 35.4425 21.352H33.9865C33.9865 19.854 35.2185 18.874 37.0945 18.874C38.9565 18.874 40.1045 19.882 40.1045 21.8V26H38.6065L38.4805 24.978C38.1865 25.692 37.2485 26.182 36.1705 26.182ZM36.7305 24.894C37.7805 24.894 38.4525 24.264 38.4525 23.2V22.836L37.0105 22.948C35.9465 23.046 35.5405 23.396 35.5405 23.956C35.5405 24.586 35.9605 24.894 36.7305 24.894ZM42.6364 17.698C42.0484 17.698 41.5864 17.236 41.5864 16.662C41.5864 16.088 42.0484 15.64 42.6364 15.64C43.1964 15.64 43.6584 16.088 43.6584 16.662C43.6584 17.236 43.1964 17.698 42.6364 17.698ZM41.7824 26V19.084H43.4904V26H41.7824ZM46.963 26H45.255V19.084H46.837L46.977 19.98C47.411 19.28 48.251 18.874 49.189 18.874C50.925 18.874 51.821 19.952 51.821 21.744V26H50.113V22.15C50.113 20.988 49.539 20.428 48.657 20.428C47.607 20.428 46.963 21.156 46.963 22.276V26ZM54.3532 17.698C53.7652 17.698 53.3032 17.236 53.3032 16.662C53.3032 16.088 53.7652 15.64 54.3532 15.64C54.9132 15.64 55.3752 16.088 55.3752 16.662C55.3752 17.236 54.9132 17.698 54.3532 17.698ZM53.4992 26V19.084H55.2072V26H53.4992ZM58.6798 26H56.9718V19.084H58.5538L58.6938 19.98C59.1278 19.28 59.9678 18.874 60.9058 18.874C62.6418 18.874 63.5378 19.952 63.5378 21.744V26H61.8298V22.15C61.8298 20.988 61.2558 20.428 60.3738 20.428C59.3238 20.428 58.6798 21.156 58.6798 22.276V26ZM64.824 22.388C64.824 20.372 66.14 18.86 68.114 18.86C69.15 18.86 69.962 19.294 70.368 20.036L70.466 19.084H72.048V25.65C72.048 27.96 70.662 29.402 68.422 29.402C66.434 29.402 65.076 28.268 64.866 26.42H66.574C66.686 27.316 67.372 27.848 68.422 27.848C69.598 27.848 70.354 27.106 70.354 25.958V24.81C69.92 25.454 69.066 25.86 68.072 25.86C66.112 25.86 64.824 24.39 64.824 22.388ZM66.546 22.346C66.546 23.508 67.288 24.376 68.408 24.376C69.584 24.376 70.312 23.55 70.312 22.346C70.312 21.17 69.598 20.358 68.408 20.358C67.274 20.358 66.546 21.212 66.546 22.346ZM77.057 23.9H78.681C78.695 24.502 79.143 24.88 79.927 24.88C80.725 24.88 81.159 24.558 81.159 24.054C81.159 23.704 80.977 23.452 80.361 23.312L79.115 23.018C77.869 22.738 77.267 22.15 77.267 21.044C77.267 19.686 78.415 18.874 80.011 18.874C81.565 18.874 82.615 19.77 82.629 21.114H81.005C80.991 20.526 80.599 20.148 79.941 20.148C79.269 20.148 78.877 20.456 78.877 20.974C78.877 21.366 79.185 21.618 79.773 21.758L81.019 22.052C82.181 22.318 82.769 22.85 82.769 23.914C82.769 25.314 81.579 26.182 79.871 26.182C78.149 26.182 77.057 25.258 77.057 23.9ZM87.1635 26.182C85.1055 26.182 83.6635 24.684 83.6635 22.542C83.6635 20.372 85.0775 18.874 87.1075 18.874C89.1795 18.874 90.4955 20.26 90.4955 22.416V22.934L85.2875 22.948C85.4135 24.166 86.0575 24.782 87.1915 24.782C88.1295 24.782 88.7455 24.418 88.9415 23.76H90.5235C90.2295 25.272 88.9695 26.182 87.1635 26.182ZM87.1215 20.274C86.1135 20.274 85.4975 20.82 85.3295 21.856H88.8015C88.8015 20.904 88.1435 20.274 87.1215 20.274ZM94.1461 26H92.4381V20.512H91.1081V19.084H92.4381V16.928H94.1461V19.084H95.4901V20.512H94.1461V26ZM99.0953 26H97.3873V20.512H96.0573V19.084H97.3873V16.928H99.0953V19.084H100.439V20.512H99.0953V26ZM102.355 17.698C101.767 17.698 101.305 17.236 101.305 16.662C101.305 16.088 101.767 15.64 102.355 15.64C102.915 15.64 103.377 16.088 103.377 16.662C103.377 17.236 102.915 17.698 102.355 17.698ZM101.501 26V19.084H103.209V26H101.501ZM106.682 26H104.974V19.084H106.556L106.696 19.98C107.13 19.28 107.97 18.874 108.908 18.874C110.644 18.874 111.54 19.952 111.54 21.744V26H109.832V22.15C109.832 20.988 109.258 20.428 108.376 20.428C107.326 20.428 106.682 21.156 106.682 22.276V26ZM112.826 22.388C112.826 20.372 114.142 18.86 116.116 18.86C117.152 18.86 117.964 19.294 118.37 20.036L118.468 19.084H120.05V25.65C120.05 27.96 118.664 29.402 116.424 29.402C114.436 29.402 113.078 28.268 112.868 26.42H114.576C114.688 27.316 115.374 27.848 116.424 27.848C117.6 27.848 118.356 27.106 118.356 25.958V24.81C117.922 25.454 117.068 25.86 116.074 25.86C114.114 25.86 112.826 24.39 112.826 22.388ZM114.548 22.346C114.548 23.508 115.29 24.376 116.41 24.376C117.586 24.376 118.314 23.55 118.314 22.346C118.314 21.17 117.6 20.358 116.41 20.358C115.276 20.358 114.548 21.212 114.548 22.346ZM121.286 23.9H122.91C122.924 24.502 123.372 24.88 124.156 24.88C124.954 24.88 125.388 24.558 125.388 24.054C125.388 23.704 125.206 23.452 124.59 23.312L123.344 23.018C122.098 22.738 121.496 22.15 121.496 21.044C121.496 19.686 122.644 18.874 124.24 18.874C125.794 18.874 126.844 19.77 126.858 21.114H125.234C125.22 20.526 124.828 20.148 124.17 20.148C123.498 20.148 123.106 20.456 123.106 20.974C123.106 21.366 123.414 21.618 124.002 21.758L125.248 22.052C126.41 22.318 126.998 22.85 126.998 23.914C126.998 25.314 125.808 26.182 124.1 26.182C122.378 26.182 121.286 25.258 121.286 23.9Z" fill="#222427"/>
<path d="M140.929 12H153.071C154.417 12 155.5 13.0831 155.5 14.4286V26.5714C155.5 27.9169 154.417 29 153.071 29H140.929C139.583 29 138.5 27.9169 138.5 26.5714V14.4286C138.5 13.0831 139.583 12 140.929 12Z" stroke="#222427" stroke-width="1.21429" stroke-linecap="round" stroke-linejoin="round"/>
<path d="M142.143 15.6445H143.357" stroke="#222427" stroke-width="1.21429" stroke-linecap="round" stroke-linejoin="round"/>
<path d="M144.571 16.8583C144.249 16.8583 143.94 16.7303 143.712 16.5026C143.485 16.2749 143.357 15.966 143.357 15.644C143.357 15.3219 143.485 15.0131 143.712 14.7853C143.94 14.5576 144.249 14.4297 144.571 14.4297C144.73 14.4297 144.888 14.4611 145.036 14.5221C145.183 14.5831 145.317 14.6726 145.429 14.7853C145.542 14.8981 145.632 15.032 145.693 15.1793C145.754 15.3266 145.785 15.4845 145.785 15.644C145.785 15.8034 145.754 15.9613 145.693 16.1087C145.632 16.256 145.542 16.3898 145.429 16.5026C145.317 16.6154 145.183 16.7048 145.036 16.7658C144.888 16.8269 144.73 16.8583 144.571 16.8583Z" stroke="#222427" stroke-width="1.21429" stroke-linecap="round" stroke-linejoin="round"/>
<path d="M145.785 15.6446L151.857 15.6445" stroke="#222427" stroke-width="1.21429" stroke-linecap="round" stroke-linejoin="round"/>
<path d="M151.857 20.5H150.643" stroke="#222427" stroke-width="1.21429" stroke-linecap="round" stroke-linejoin="round"/>
<path d="M149.428 21.7137C149.75 21.7137 150.059 21.5858 150.287 21.3581C150.515 21.1303 150.642 20.8215 150.642 20.4994C150.642 20.1774 150.515 19.8685 150.287 19.6408C150.059 19.4131 149.75 19.2852 149.428 19.2852C149.106 19.2852 148.797 19.4131 148.57 19.6408C148.342 19.8685 148.214 20.1774 148.214 20.4994C148.214 20.8215 148.342 21.1303 148.57 21.3581C148.797 21.5858 149.106 21.7137 149.428 21.7137Z" stroke="#222427" stroke-width="1.21429" stroke-linecap="round" stroke-linejoin="round"/>
<path d="M148.214 20.5L142.143 20.5" stroke="#222427" stroke-width="1.21429" stroke-linecap="round" stroke-linejoin="round"/>
<path d="M142.143 25.3555H143.357" stroke="#222427" stroke-width="1.21429" stroke-linecap="round" stroke-linejoin="round"/>
<path d="M144.571 26.5731C144.249 26.5731 143.94 26.4452 143.712 26.2174C143.485 25.9897 143.357 25.6809 143.357 25.3588C143.357 25.0368 143.485 24.7279 143.712 24.5002C143.94 24.2725 144.249 24.1445 144.571 24.1445C144.73 24.1445 144.888 24.1759 145.036 24.237C145.183 24.298 145.317 24.3874 145.429 24.5002C145.542 24.6129 145.632 24.7468 145.693 24.8941C145.754 25.0415 145.785 25.1994 145.785 25.3588C145.785 25.5183 145.754 25.6762 145.693 25.8235C145.632 25.9708 145.542 26.1047 145.429 26.2174C145.317 26.3302 145.183 26.4196 145.036 26.4807C144.888 26.5417 144.73 26.5731 144.571 26.5731Z" stroke="#222427" stroke-width="1.21429" stroke-linecap="round" stroke-linejoin="round"/>
<path d="M145.785 25.3555L151.857 25.3555" stroke="#222427" stroke-width="1.21429" stroke-linecap="round" stroke-linejoin="round"/>
</svg>
