<svg xmlns="http://www.w3.org/2000/svg" width="18" height="18" viewBox="0 0 18 18" >
  <path fill="#B2B5C0" d="M0.5 0.499176H15.1391V2.86033H14.1947V1.44364H1.44446V12.3049H11.544V13.2494H0.5V0.499176ZM14.6669 6.63817C15.0426 6.63817 15.403 6.48891 15.6687 6.22323C15.9343 5.95755 16.0836 5.59721 16.0836 5.22148C16.0836 4.84575 15.9343 4.48541 15.6687 4.21972C15.403 3.95404 15.0426 3.80479 14.6669 3.80479C14.2912 3.80479 13.9308 3.95404 13.6651 4.21972C13.3995 4.48541 13.2502 4.84575 13.2502 5.22148C13.2502 5.59721 13.3995 5.95755 13.6651 6.22323C13.9308 6.48891 14.2912 6.63817 14.6669 6.63817ZM15.626 7.58735C16.2394 7.58735 16.7249 7.86313 17.0427 8.28908C17.3397 8.68812 17.4653 9.1816 17.4937 9.6373C17.5214 10.1048 17.4577 10.5731 17.3062 11.0162C17.1645 11.4271 16.9251 11.8521 16.5558 12.1434V16.7911C16.5562 16.9691 16.4895 17.1407 16.3691 17.2717C16.2487 17.4028 16.0834 17.4837 15.906 17.4984C15.7286 17.5131 15.5522 17.4605 15.4119 17.3511C15.2715 17.2416 15.1775 17.0834 15.1486 16.9078L14.5394 13.2494H14.3987L13.7102 16.9214C13.6775 17.0948 13.5813 17.2496 13.4405 17.3558C13.2996 17.4619 13.1242 17.5117 12.9486 17.4955C12.773 17.4792 12.6098 17.3979 12.4909 17.2677C12.372 17.1374 12.306 16.9675 12.3058 16.7911V10.0538C12.2113 10.1977 12.1181 10.3423 12.0262 10.4878L11.9894 10.5459L11.9799 10.561L11.9776 10.5652C11.9139 10.6674 11.8253 10.7517 11.72 10.8101C11.6147 10.8685 11.4963 10.8992 11.3759 10.8991H9.01478C8.82691 10.8991 8.64674 10.8245 8.5139 10.6916C8.38106 10.5588 8.30643 10.3786 8.30643 10.1908C8.30643 10.0029 8.38106 9.82272 8.5139 9.68988C8.64674 9.55704 8.82691 9.48241 9.01478 9.48241H10.9873C11.102 9.30485 11.2531 9.0744 11.4118 8.84301C11.5771 8.6017 11.7594 8.34622 11.9218 8.146C12.0007 8.04825 12.089 7.94624 12.1778 7.86266C12.2212 7.82157 12.2817 7.76821 12.3553 7.72099C12.4853 7.63565 12.6371 7.58943 12.7926 7.58782L15.626 7.58735Z" />
</svg>